<?xml version="1.0" encoding="utf-8"?>
<!-- Generator: Adobe Illustrator 16.0.0, SVG Export Plug-In . SVG Version: 6.00 Build 0)  -->
<!DOCTYPE svg PUBLIC "-//W3C//DTD SVG 1.1//EN" "http://www.w3.org/Graphics/SVG/1.1/DTD/svg11.dtd">
<svg version="1.1" id="Layer_1" xmlns="http://www.w3.org/2000/svg" xmlns:xlink="http://www.w3.org/1999/xlink" x="0px" y="0px"
	 width="25px" height="25px" viewBox="0 0 25 25" enable-background="new 0 0 25 25" xml:space="preserve">
<g>
	<path fill="#010101" d="M0.169,4.977c0-0.665-0.002-1.177,0.002-1.689c0-0.109,0.026-0.219,0.053-0.417
		c1.298,0,2.577-0.023,3.852,0.021c0.194,0.005,0.453,0.29,0.552,0.5C4.994,4.166,5.35,4.949,5.623,5.758
		c0.209,0.613,0.536,0.808,1.184,0.805c5.661-0.024,11.328-0.015,16.988-0.015c0.309,0,0.619,0,1.037,0
		c-0.107,0.328-0.168,0.564-0.262,0.789c-1.211,3.047-2.445,6.086-3.627,9.143c-0.215,0.557-0.506,0.702-1.068,0.697
		c-4.436-0.024-8.867-0.02-13.298,0c-0.593,0.005-0.826-0.147-0.942-0.77c-0.59-3.17-1.239-6.325-1.878-9.483
		c-0.361-1.778-0.58-1.947-2.398-1.947C0.995,4.977,0.63,4.977,0.169,4.977z"/>
	<path fill="#010101" d="M7.422,22.803c-1.184-0.011-2.119-0.962-2.099-2.138c0.02-1.161,1.014-2.138,2.16-2.113
		c1.146,0.02,2.122,1.025,2.104,2.172C9.574,21.889,8.608,22.816,7.422,22.803z"/>
	<path fill="#010101" d="M18.633,22.807c-1.174-0.015-2.139-0.985-2.119-2.137c0.021-1.137,1.041-2.137,2.17-2.118
		c1.164,0.015,2.094,0.981,2.086,2.167C20.758,21.918,19.838,22.816,18.633,22.807z"/>
</g>
<g>
</g>
<g>
</g>
<g>
</g>
<g>
</g>
<g>
</g>
<g>
</g>
</svg>
