<?xml version="1.0" encoding="utf-8"?>
<!-- Generator: Adobe Illustrator 16.0.0, SVG Export Plug-In . SVG Version: 6.00 Build 0)  -->
<!DOCTYPE svg PUBLIC "-//W3C//DTD SVG 1.1//EN" "http://www.w3.org/Graphics/SVG/1.1/DTD/svg11.dtd">
<svg version="1.1" id="Layer_1" xmlns="http://www.w3.org/2000/svg" xmlns:xlink="http://www.w3.org/1999/xlink" x="0px" y="0px"
	 width="25px" height="25px" viewBox="0 0 25 25" enable-background="new 0 0 25 25" xml:space="preserve">
<g>
	<path fill="#010101" d="M12.502,23.16c-3.079,0-6.159,0.002-9.238,0c-0.909,0-0.977-0.075-0.979-0.996
		c-0.004-3.649,1.702-6.115,4.893-7.024c0.507-0.146,1.039-0.271,1.562-0.281c2.933-0.056,5.898-0.413,8.783,0.229
		c3.83,0.847,5.402,4.003,5.167,7.555c-0.036,0.524-0.432,0.519-0.812,0.519c-2.269,0-4.54,0-6.807,0
		C14.216,23.16,13.362,23.16,12.502,23.16z"/>
	<path fill="#010101" d="M12.509,1.838c3.085,0,5.548,2.475,5.544,5.569c0,3.08-2.477,5.547-5.572,5.545
		c-3.087-0.005-5.544-2.477-5.542-5.573C6.942,4.286,9.408,1.834,12.509,1.838z"/>
</g>
</svg>
